<svg xmlns="http://www.w3.org/2000/svg" viewBox="0 0 300 300" fill="currentColor" id="Arrow-Big-Left--Streamline-Tabler-Filled" height="15" width="15"><desc>Arrow Big Left Streamline Icon: https://streamlinehq.com</desc><path d="M110.6525 29.90625L11.790000000000001 128.77C0.06999999999999999 140.4925 0.06999999999999999 159.4975 11.790000000000001 171.22125L110.6525 270.08375C119.23875 278.675 132.155 281.24625000000003 143.3775 276.59875L145.55374999999998 275.5775C155.585 270.445 161.8975 260.12624999999997 161.9 248.8575V210.03875H266.9775C283.55875 210.03875 297 196.5975 297 180.0175V119.9725L296.925 117.72125C295.74625000000003 102.055 282.68875 89.94625 266.9775 89.95125L161.9 89.93625V51.1325C161.89499999999998 28.02125 136.87375 13.5825 116.86125000000001 25.142500000000002C114.5925 26.4525 112.50625000000001 28.055000000000003 110.6525 29.90625Z" stroke-width="1"></path></svg>