<svg xmlns="http://www.w3.org/2000/svg" viewBox="-0.5 -0.5 300 300" id="Calculator--Streamline-Font-Awesome" height="300" width="300"><desc>Calculator Streamline Icon: https://streamlinehq.com</desc><!--! Font Awesome Free 6.5.2 by @fontawesome - https://fontawesome.com License - https://fontawesome.com/license/free (Icons: CC BY 4.0, Fonts: SIL OFL 1.1, Code: MIT License) Copyright 2024 Fonticons, Inc.--><path d="M76.245 2.99c-20.20235546875 0 -36.6275 16.42514453125 -36.6275 36.6275v219.76500000000001c0 20.20235546875 16.42514453125 36.6275 36.6275 36.6275h146.51c20.20235546875 0 36.6275 -16.42514453125 36.6275 -36.6275V39.61750000000001c0 -20.20235546875 -16.42514453125 -36.6275 -36.6275 -36.6275H76.245Zm18.31375 36.6275h109.88250000000001c10.12979296875 0 18.31375 8.183957031250001 18.31375 18.31375v18.31375c0 10.12979296875 -8.183957031250001 18.31375 -18.31375 18.31375H94.55875c-10.12979296875 0 -18.31375 -8.183957031250001 -18.31375 -18.31375V57.931250000000006c0 -10.12979296875 8.183957031250001 -18.31375 18.31375 -18.31375Zm18.31375 91.56875c0 14.097927864583333 -15.261458333333335 22.90916197916667 -27.470625000000002 15.860159114583334 -5.66628359375 -3.2714026041666666 -9.156875 -9.317276041666666 -9.156875 -15.860159114583334 0 -14.097927864583333 15.261458333333335 -22.90916197916667 27.470625000000002 -15.860159114583334 5.66628359375 3.2714026041666666 9.156875 9.317276041666666 9.156875 15.860159114583334Zm-18.31375 73.255c-14.097927864583333 0.0006229166666666667 -22.90900625 -15.260446093750001 -15.8605484375 -27.469924218750002 3.271324739583333 -5.666672916666666 9.317353906250002 -9.15757578125 15.8605484375 -9.15757578125 14.097927864583333 0 22.90916197916667 15.261458333333335 15.860159114583334 27.470625000000002 -3.2715583333333336 5.6665171875 -9.316964583333334 9.157186458333335 -15.860159114583334 9.156875ZM76.245 241.06875000000002c0 -10.12979296875 8.183957031250001 -18.31375 18.31375 -18.31375H149.5c10.12979296875 0 18.31375 8.183957031250001 18.31375 18.31375s-8.183957031250001 18.31375 -18.31375 18.31375h-54.941250000000004c-10.12979296875 0 -18.31375 -8.183957031250001 -18.31375 -18.31375ZM149.5 149.5c-14.097927864583333 0 -22.90916197916667 -15.261458333333335 -15.860159114583334 -27.470625000000002 3.2715583333333336 -5.6665171875 9.316964583333334 -9.157186458333335 15.860159114583334 -9.156875 14.097927864583333 -0.0006229166666666667 22.90900625 15.260446093750001 15.8605484375 27.469924218750002C162.08922369791668 146.00909713541665 156.04319453125 149.5 149.5 149.5Zm18.31375 36.6275c0 14.097927864583333 -15.261458333333335 22.90916197916667 -27.470625000000002 15.860159114583334 -5.66628359375 -3.2714026041666666 -9.156875 -9.317276041666666 -9.156875 -15.860159114583334 0 -14.097927864583333 15.261458333333335 -22.90916197916667 27.470625000000002 -15.860159114583334 5.66628359375 3.2714026041666666 9.156875 9.317276041666666 9.156875 15.860159114583334ZM204.44125000000003 149.5c-14.097927864583333 0 -22.90916197916667 -15.261458333333335 -15.860159114583334 -27.470625000000002 3.2715583333333336 -5.6665171875 9.316964583333334 -9.157186458333335 15.860159114583334 -9.156875 14.097927864583333 -0.0006229166666666667 22.90900625 15.260446093750001 15.8605484375 27.469924218750002C217.03047369791668 146.00909713541665 210.98444453125 149.5 204.44125000000003 149.5Zm18.31375 36.6275c0 14.097927864583333 -15.261458333333335 22.90916197916667 -27.470625000000002 15.860159114583334 -5.66628359375 -3.2714026041666666 -9.156875 -9.317276041666666 -9.156875 -15.860159114583334 0 -14.097927864583333 15.261458333333335 -22.90916197916667 27.470625000000002 -15.860159114583334 5.66628359375 3.2714026041666666 9.156875 9.317276041666666 9.156875 15.860159114583334Zm-18.31375 73.255c-14.097927864583333 0 -22.90916197916667 -15.261458333333335 -15.860159114583334 -27.470625000000002 3.2715583333333336 -5.6665171875 9.316964583333334 -9.157186458333335 15.860159114583334 -9.156875 14.097927864583333 0.0006229166666666667 22.90923984375 15.262470572916666 15.859769791666668 27.471325781250002 -3.2715583333333336 5.665894270833333 -9.317198177083334 9.156174218750001 -15.859769791666668 9.156174218750001Z" fill="#000000" stroke-width="1"></path></svg>