<svg xmlns="http://www.w3.org/2000/svg" viewBox="0 0 300 300" fill="currentColor" id="Arrow-Big-Right--Streamline-Tabler-Filled" height="15" width="15"><desc>Arrow Big Right Streamline Icon: https://streamlinehq.com</desc><path d="M154.44625000000002 24.4225C144.415 29.555 138.1025 39.87375 138.1 51.1425L138.08499999999998 89.96125H33.0225C16.44125 89.96125 3 103.4025 3 119.98249999999999V180.0275L3.075 182.27875C4.25375 197.945 17.31125 210.05375 33.0225 210.04874999999998L138.08499999999998 210.03375000000003L138.1 248.8675C138.10500000000002 271.97875 163.12625 286.4175 183.13875 274.8575C185.4075 273.5475 187.49375 271.945 189.3475 270.09375L288.21 171.23C299.93 159.5075 299.93 140.5025 288.21 128.77875L189.3475 29.916249999999998C180.76125000000002 21.325 167.845 18.75375 156.6225 23.40125L154.44625000000002 24.4225Z" stroke-width="1"></path></svg>