<svg xmlns="http://www.w3.org/2000/svg" viewBox="0 0 300 300" id="Github-Logo-1--Streamline-Ultimate" height="16" width="16"><desc>Github Logo 1 Streamline Icon: https://streamlinehq.com</desc><defs></defs><title>developer-community-github-1</title><path d="M150 6.25a143.75 143.75 0 0 0 -45.4375 280.175c7.175 1.25 9.45 -2.9625 9.45 -6.7625 0 -3.4375000000000004 0.075 -12.962499999999999 0 -25 -40 8.674999999999999 -48.2625 -18.9375 -48.2625 -18.9375a38.0375 38.0375 0 0 0 -15.950000000000001 -21.025c-13.05 -8.924999999999999 0.975 -8.75 0.975 -8.75a30.175 30.175 0 0 1 22.025 14.799999999999999 30.599999999999998 30.599999999999998 0 0 0 41.825 11.95 30.625000000000004 30.625000000000004 0 0 1 9.125 -19.15c-31.912499999999998 -3.65 -65.47500000000001 -15.975 -65.47500000000001 -71.075a55.5875 55.5875 0 0 1 14.8125 -38.574999999999996 51.575 51.575 0 0 1 1.4000000000000001 -38.0375s12.0875 -3.8625 39.525 14.75a136.0375 136.0375 0 0 1 72 0c27.500000000000004 -18.6 39.4875 -14.75 39.4875 -14.75a51.6375 51.6375 0 0 1 1.425 38.0375 55.525000000000006 55.525000000000006 0 0 1 14.787500000000001 38.6c0 55.25 -33.6125 67.3875 -65.6375 70.92500000000001a34.0875 34.0875 0 0 1 9.8375 26.5v39.800000000000004c0 3.8375 2.325 8.0875 9.625 6.7A143.75 143.75 0 0 0 150 6.25Z" fill="#9feaff" stroke-width="1"></path><path d="M71.875 74.2a63.24999999999999 63.24999999999999 0 0 1 2.6125 -8.3375 23.5125 23.5125 0 0 1 10.6875 0.7250000000000001 142.775 142.775 0 0 1 129.6625 0 23.325000000000003 23.325000000000003 0 0 1 10.6625 -0.7374999999999999 62.675000000000004 62.675000000000004 0 0 1 2.6125 8.3375 143.5375 143.5375 0 0 1 63.74999999999999 98.75 143.75 143.75 0 1 0 -283.825 0A143.5625 143.5625 0 0 1 71.875 74.2Z" fill="#9feaff" stroke-width="1"></path><path d="M150 6.25a143.75 143.75 0 0 0 -45.4375 280.175c7.175 1.25 9.45 -2.9625 9.45 -6.7625 0 -3.4375000000000004 0.075 -12.962499999999999 0 -25 -40 8.674999999999999 -48.2625 -18.9375 -48.2625 -18.9375a38.0375 38.0375 0 0 0 -15.950000000000001 -21.025c-13.05 -8.924999999999999 0.975 -8.75 0.975 -8.75a30.175 30.175 0 0 1 22.025 14.799999999999999 30.599999999999998 30.599999999999998 0 0 0 41.825 11.95 30.625000000000004 30.625000000000004 0 0 1 9.125 -19.15c-31.912499999999998 -3.65 -65.47500000000001 -15.975 -65.47500000000001 -71.075a55.5875 55.5875 0 0 1 14.8125 -38.574999999999996 51.575 51.575 0 0 1 1.4000000000000001 -38.0375s12.0875 -3.8625 39.525 14.75a136.0375 136.0375 0 0 1 72 0c27.500000000000004 -18.6 39.4875 -14.75 39.4875 -14.75a51.6375 51.6375 0 0 1 1.425 38.0375 55.525000000000006 55.525000000000006 0 0 1 14.787500000000001 38.6c0 55.25 -33.6125 67.3875 -65.6375 70.92500000000001a34.0875 34.0875 0 0 1 9.8375 26.5v39.800000000000004c0 3.8375 2.325 8.0875 9.625 6.7A143.75 143.75 0 0 0 150 6.25Z" fill="none" stroke="#00303e" stroke-linecap="round" stroke-linejoin="round" stroke-width="1"></path></svg>