<svg xmlns="http://www.w3.org/2000/svg" fill="none" viewBox="0 0 300 300" id="File-Report--Streamline-Core-Remix" height="300" width="300"><desc>File Report Streamline Icon: https://streamlinehq.com</desc><g id="Interface Essential/Files Folders/file-report"><path id="Union" fill="#000000" fill-rule="evenodd" d="M50.56778571428571 29.139214285714285c1.5070714285714286 -1.5068571428571427 3.550928571428571 -2.3535 5.682214285714286 -2.3535h131.05971428571428L251.78571428571428 91.26171428571429V265.1785714285714c0 2.132142857142857 -0.8464285714285714 4.174285714285714 -2.3528571428571428 5.682857142857142 -1.5085714285714285 1.5064285714285715 -3.5507142857142853 2.3528571428571428 -5.682857142857142 2.3528571428571428h-187.5c-2.1312857142857142 0 -4.175142857142857 -0.8464285714285714 -5.682214285714286 -2.3528571428571428 -1.5068571428571427 -1.5085714285714285 -2.3535 -3.5507142857142853 -2.3535 -5.682857142857142V34.82142857142857c0 -2.1312857142857142 0.8466428571428571 -4.175142857142857 2.3535 -5.682214285714286ZM56.24999999999999 0c-9.235285714285713 0 -18.092142857142857 3.668678571428571 -24.622499999999995 10.19895C25.097142857142856 16.729242857142857 21.428571428571427 25.586142857142857 21.428571428571427 34.82142857142857v230.35714285714283c0 9.235714285714286 3.668571428571428 18.092142857142857 10.19892857142857 24.62142857142857 6.5303571428571425 6.531428571428571 15.387214285714284 10.2 24.622499999999995 10.2h187.5c9.235714285714286 0 18.092142857142857 -3.668571428571428 24.62142857142857 -10.2 6.531428571428571 -6.529285714285715 10.2 -15.385714285714284 10.2 -24.62142857142857V85.71428571428571c0 -3.5519999999999996 -1.41 -6.9585 -3.9235714285714285 -9.470142857142857L202.32728571428572 3.9226714285714284C199.81564285714285 1.4110307142857144 196.40914285714285 0 192.85714285714283 0H56.24999999999999Zm158.685 102.43564285714285c6.276428571428571 -6.276214285714285 6.276428571428571 -16.452214285714284 0 -22.72842857142857 -6.275571428571428 -6.276214285714285 -16.451571428571427 -6.276214285714285 -22.727785714285712 0L160.7142857142857 111.20014285714284l-20.778642857142856 -20.778642857142856c-6.276214285714285 -6.276214285714285 -16.452214285714284 -6.276214285714285 -22.72842857142857 0l-32.14285714285714 32.14285714285714c-6.276214285714285 6.276214285714285 -6.276214285714285 16.452214285714284 0 22.72842857142857s16.452214285714284 6.276214285714285 22.72842857142857 0L128.57142857142856 124.51414285714286l20.778642857142856 20.778642857142856c6.276214285714285 6.276214285714285 16.452214285714284 6.276214285714285 22.72842857142857 0l42.8565 -42.857142857142854ZM96.42857142857142 171.42857142857142c-7.3967142857142845 0 -13.392857142857142 5.996142857142857 -13.392857142857142 13.392857142857142s5.996142857142857 13.392857142857142 13.392857142857142 13.392857142857142h107.14285714285714c7.3967142857142845 0 13.392857142857142 -5.996142857142857 13.392857142857142 -13.392857142857142S210.96814285714282 171.42857142857142 203.57142857142856 171.42857142857142h-107.14285714285714Zm-13.392857142857142 64.28571428571428c0 -7.397142857142857 5.996142857142857 -13.392857142857142 13.392857142857142 -13.392857142857142h107.14285714285714c7.3967142857142845 0 13.392857142857142 5.9957142857142856 13.392857142857142 13.392857142857142s-5.996142857142857 13.392857142857142 -13.392857142857142 13.392857142857142h-107.14285714285714c-7.3967142857142845 0 -13.392857142857142 -5.9957142857142856 -13.392857142857142 -13.392857142857142Z" clip-rule="evenodd" stroke-width="1"></path></g></svg>