<svg xmlns="http://www.w3.org/2000/svg" fill="none" viewBox="0 0 300 300" id="Search-Visual--Streamline-Core-Remix" height="300" width="300"><desc>Search Visual Streamline Icon: https://streamlinehq.com</desc><g id="Interface Essential/Search/search-visual"><path id="Union" fill="#000000" fill-rule="evenodd" d="M42.857142857142854 34.82142857142857c-2.1312857142857142 0 -4.175142857142857 0.8466428571428571 -5.682214285714286 2.3535C35.66807142857142 38.682 34.82142857142857 40.72585714285714 34.82142857142857 42.857142857142854v42.857142857142854c0 7.3967142857142845 -5.996142857142857 13.392857142857142 -13.392857142857142 13.392857142857142 -7.396671428571428 0 -13.392857142857142 -5.996142857142857 -13.392857142857142 -13.392857142857142V42.857142857142854c0 -9.235285714285713 3.668678571428571 -18.092142857142857 10.19895 -24.62247857142857C24.764999999999997 11.704392857142857 33.621857142857145 8.035714285714285 42.857142857142854 8.035714285714285h42.857142857142854c7.3967142857142845 0 13.392857142857142 5.996185714285714 13.392857142857142 13.392857142857142 0 7.3967142857142845 -5.996142857142857 13.392857142857142 -13.392857142857142 13.392857142857142H42.857142857142854Zm171.42857142857142 -26.785714285714285c-7.3967142857142845 0 -13.392857142857142 5.996185714285714 -13.392857142857142 13.392857142857142 0 7.3967142857142845 5.996142857142857 13.392857142857142 13.392857142857142 13.392857142857142h42.857142857142854c2.132142857142857 0 4.174285714285714 0.8466428571428571 5.682857142857142 2.3535 1.5064285714285715 1.5070714285714286 2.3528571428571428 3.550928571428571 2.3528571428571428 5.682214285714286v42.857142857142854c0 7.3967142857142845 5.9957142857142856 13.392857142857142 13.392857142857142 13.392857142857142s13.392857142857142 -5.996142857142857 13.392857142857142 -13.392857142857142V42.857142857142854c0 -9.235285714285713 -3.668571428571428 -18.092142857142857 -10.2 -24.62247857142857C275.235 11.704392857142857 266.3785714285714 8.035714285714285 257.1428571428571 8.035714285714285h-42.857142857142854ZM291.96428571428567 214.28571428571428c0 -7.3967142857142845 -5.9957142857142856 -13.392857142857142 -13.392857142857142 -13.392857142857142s-13.392857142857142 5.996142857142857 -13.392857142857142 13.392857142857142v42.857142857142854c0 2.132142857142857 -0.8464285714285714 4.174285714285714 -2.3528571428571428 5.682857142857142 -1.5085714285714285 1.5064285714285715 -3.5507142857142853 2.3528571428571428 -5.682857142857142 2.3528571428571428h-42.857142857142854c-7.3967142857142845 0 -13.392857142857142 5.9957142857142856 -13.392857142857142 13.392857142857142s5.996142857142857 13.392857142857142 13.392857142857142 13.392857142857142h42.857142857142854c9.235714285714286 0 18.092142857142857 -3.668571428571428 24.62142857142857 -10.2 6.531428571428571 -6.529285714285715 10.2 -15.385714285714284 10.2 -24.62142857142857v-42.857142857142854Zm-257.1428571428571 0c0 -7.3967142857142845 -5.996142857142857 -13.392857142857142 -13.392857142857142 -13.392857142857142 -7.396671428571428 0 -13.392857142857142 5.996142857142857 -13.392857142857142 13.392857142857142v42.857142857142854c0 9.235714285714286 3.668678571428571 18.092142857142857 10.19895 24.62142857142857 6.530335714285713 6.531428571428571 15.387192857142855 10.2 24.62247857142857 10.2h42.857142857142854c7.3967142857142845 0 13.392857142857142 -5.9957142857142856 13.392857142857142 -13.392857142857142s-5.996142857142857 -13.392857142857142 -13.392857142857142 -13.392857142857142H42.857142857142854c-2.1312857142857142 0 -4.175142857142857 -0.8464285714285714 -5.682214285714286 -2.3528571428571428 -1.5068571428571427 -1.5085714285714285 -2.3535 -3.5507142857142853 -2.3535 -5.682857142857142v-42.857142857142854ZM133.92857142857142 83.03571428571428c-28.107428571428567 0 -50.89285714285714 22.78542857142857 -50.89285714285714 50.89285714285714S105.82114285714285 184.82142857142856 133.92857142857142 184.82142857142856 184.82142857142856 162.036 184.82142857142856 133.92857142857142 162.036 83.03571428571428 133.92857142857142 83.03571428571428ZM56.24999999999999 133.92857142857142c0 -42.900642857142856 34.77792857142857 -77.67857142857142 77.67857142857142 -77.67857142857142S211.60714285714283 91.02792857142856 211.60714285714283 133.92857142857142c0 14.652642857142856 -4.057071428571429 28.357714285714287 -11.108999999999998 40.05321428571428l32.40257142857143 32.40278571428571c7.322142857142857 7.322357142857142 7.322142857142857 19.194 0 26.516142857142853s-19.193785714285713 7.322142857142857 -26.516142857142853 0L173.98178571428568 200.49814285714282C162.2862857142857 207.5500714285714 148.58121428571428 211.60714285714283 133.92857142857142 211.60714285714283c-42.900642857142856 0 -77.67857142857142 -34.77792857142857 -77.67857142857142 -77.67857142857142Z" clip-rule="evenodd" stroke-width="1"></path></g></svg>