                    <svg xmlns="http://www.w3.org/2000/svg" fill="none" viewBox="0 0 300 300" id="Cog-1--Streamline-Core-Remix" height="300" width="300"><desc>Cog 1 Streamline Icon: https://streamlinehq.com</desc><g id="Interface Essential/Setting/cog-1--work-loading-cog-gear-settings-machine"><path id="Union" fill="#000000" fill-rule="evenodd" d="m141.381 -0.020926328571428572 -0.03964285714285714 0.00011749285714285713C134.40942857142855 -0.00033208285714285716 127.64507142857141 2.1132492857142857 121.93435714285714 6.043114285714285c-5.708142857142857 3.928242857142857 -10.09757142857143 9.488207142857142 -12.593571428571428 15.952242857142856l-0.0029999999999999996 0.007928571428571427 -7.307357142857142 18.862714285714286 -22.917214285714284 13.007142857142856 -20.212071428571427 -3.083142857142857 0.00021428571428571427 -0.0019285714285714286 -0.21835714285714283 -0.029571428571428568c-6.761571428571428 -0.9177857142857142 -13.643357142857141 0.1952142857142857 -19.770857142857142 3.1977857142857142 -6.127285714285715 3.002357142857143 -11.223857142857142 7.758642857142856 -14.641928571428569 13.66435714285714l-0.03664285714285714 0.06385714285714285 -8.372035714285714 14.651142857142856c-3.4947857142857144 5.981357142857142 -5.103321428571428 12.879 -4.614021428571428 19.79057142857143 0.4915071428571428 6.942428571428571 3.0765214285714286 13.572642857142856 7.413878571428571 19.015714285714285l-0.00019285714285714284 0.00021428571428571427 0.049071428571428564 0.06064285714285714 12.797228571428569 15.8685V163.0285714285714l-12.460328571428573 15.874071428571426c-4.316485714285714 5.434714285714286 -6.889071428571428 12.048214285714286 -7.379249999999999 18.971999999999998 -0.4893214285714286 6.911785714285714 1.1192785714285713 13.809642857142855 4.614171428571428 19.79035714285714l8.371907142857143 14.650714285714285 -0.00021428571428571427 0 0.03685714285714285 0.06428571428571428c3.4180714285714284 5.905714285714286 8.514642857142857 10.662857142857142 14.641928571428569 13.665 6.1274999999999995 3.002142857142857 13.009285714285713 4.114285714285714 19.770642857142853 3.197142857142857l0.00042857142857142855 0.002142857142857143 0.21792857142857142 -0.03428571428571429 20.16857142857143 -3.0749999999999997 22.52442857142857 12.957857142857142 7.323214285714285 18.904285714285713 0.0012857142857142856 0.004285714285714286c2.4957857142857143 6.465 6.885857142857143 12.027857142857142 12.595285714285712 15.955714285714285 5.710714285714285 3.9299999999999997 12.475071428571427 6.045 19.407 6.064285714285713l0.03964285714285714 0h17.656499999999998l0.03964285714285714 0c6.932142857142857 -0.019285714285714285 13.696499999999999 -2.134285714285714 19.407 -6.064285714285713 5.709 -3.9278571428571425 10.098642857142856 -9.48857142857143 12.594642857142857 -15.95357142857143l0.002142857142857143 -0.006428571428571428 7.323214285714285 -18.904285714285713 22.52442857142857 -12.957857142857142 20.16857142857143 3.0749999999999997 0 0.002142857142857143 0.21857142857142858 0.03c6.760714285714285 0.917142857142857 13.643571428571429 -0.195 19.77 -3.197142857142857 6.128571428571427 -3.002142857142857 11.224285714285715 -7.7592857142857135 14.642142857142856 -13.665l0.03642857142857142 -0.06428571428571428 8.372142857142856 -14.648571428571428c3.4949999999999997 -5.9826428571428565 5.104285714285714 -12.8805 4.613571428571428 -19.792499999999997 -0.49071428571428566 -6.942428571428571 -3.0749999999999997 -13.572642857142856 -7.4121428571428565 -19.0155l0 -0.00021428571428571427 -0.04928571428571428 -0.06085714285714285 -12.797142857142855 -15.8685V136.9725l12.458571428571428 -15.874071428571426c4.317857142857143 -5.434714285714286 6.889285714285714 -12.048214285714286 7.379999999999999 -18.972214285714283 0.48857142857142855 -6.911571428571428 -1.1185714285714285 -13.809214285714283 -4.613571428571428 -19.79057142857143l-8.372142857142856 -14.651142857142856 -0.03642857142857142 -0.06385714285714285c-3.4178571428571427 -5.905714285714286 -8.515714285714285 -10.661999999999999 -14.642142857142856 -13.66435714285714 -6.128571428571427 -3.0025714285714282 -13.009285714285713 -4.115571428571428 -19.77 -3.1977857142857142l-0.002142857142857143 -0.0019285714285714286 -0.21642857142857141 0.033428571428571426 -20.16857142857143 3.0765L197.98371428571429 40.90714285714286l-7.323214285714285 -18.90385714285714 -0.002142857142857143 -0.005357142857142857C188.16257142857143 15.532842857142857 183.77271428571427 9.971892857142857 178.06371428571427 6.043114285714285c-5.7105 -3.9298649999999995 -12.474857142857143 -6.043446368571428 -19.407 -6.063981878571429h-0.039428571428571424l-17.236285714285714 -0.00005873571428571428ZM141.40564285714285 26.76492857142857h17.186999999999998c1.5310714285714284 0.0075 3.0246428571428567 0.4757142857142857 4.286142857142857 1.3437857142857141 1.265785714285714 0.8710714285714285 2.238857142857143 2.1038571428571426 2.791928571428571 3.537214285714285l0.006428571428571428 0.016714285714285713 9.038357142857143 23.33185714285714c1.1059285714285714 2.8545 3.1562142857142854 5.244 5.809714285714286 6.770785714285713l30.688714285714283 17.656499999999998c2.631 1.5137142857142856 5.698928571428572 2.0888571428571425 8.69892857142857 1.6311428571428568l24.66642857142857 -3.762857142857143c1.472142857142857 -0.1834285714285714 2.967857142857143 0.06621428571428571 4.300714285714285 0.7193571428571429 1.3499999999999999 0.6615 2.472857142857143 1.7069999999999999 3.231428571428571 3.004928571428571l0.012857142857142855 0.02357142857142857 8.372142857142856 14.649857142857142 -0.002142857142857143 0.0006428571428571428 0.08357142857142856 0.14228571428571427c0.782142857142857 1.3296428571428571 1.1421428571428571 2.8652142857142855 1.0328571428571427 4.403785714285714 -0.10714285714285714 1.5387857142857142 -0.6814285714285714 3.008142857142857 -1.6414285714285712 4.214571428571428l-0.06214285714285713 0.07692857142857142 -15.344999999999999 19.54842857142857c-1.8514285714285714 2.3588571428571425 -2.8564285714285713 5.270785714285714 -2.8564285714285713 8.269499999999999V167.65714285714284c0 3.0591428571428567 1.0457142857142856 6.026142857142857 2.967857142857143 8.407285714285715l15.715714285714286 19.487357142857142 0.017142857142857144 0.023142857142857142c0.9514285714285714 1.202142857142857 1.5171428571428571 2.6624999999999996 1.6264285714285711 4.191428571428571 0.10714285714285714 1.5385714285714285 -0.25285714285714284 3.074142857142857 -1.035 4.404l0 -0.0006428571428571428 -0.08142857142857142 0.14335714285714285 -8.372142857142856 14.6505 -0.012857142857142855 0.02357142857142857c-0.7585714285714286 1.2985714285714285 -1.8814285714285715 2.3421428571428566 -3.231428571428571 3.004285714285714 -1.3328571428571427 0.6535714285714285 -2.8285714285714283 0.902142857142857 -4.298571428571428 0.7199999999999999l-24.668571428571425 -3.762857142857143c-3 -0.4585714285714285 -6.0675 0.11785714285714284 -8.6985 1.6307142857142856l-30.688714285714283 17.657142857142855c-2.6534999999999997 1.5257142857142856 -4.703785714285714 3.9149999999999996 -5.809714285714286 6.769285714285714l-9.038571428571428 23.333571428571428 -0.006214285714285714 0.015c-0.5532857142857143 1.4335714285714285 -1.5263571428571427 2.6678571428571427 -2.791928571428571 3.5378571428571424 -1.2612857142857143 0.8678571428571428 -2.754857142857143 1.337142857142857 -4.285714285714286 1.3435714285714286H141.405c-1.530857142857143 -0.006428571428571428 -3.0242142857142857 -0.4757142857142857 -4.285714285714286 -1.3435714285714286 -1.2655714285714286 -0.8699999999999999 -2.2386428571428567 -2.104285714285714 -2.791714285714286 -3.5378571428571424l-0.006428571428571428 -0.015 -9.038571428571428 -23.333571428571428c-1.1057142857142856 -2.8542857142857145 -3.1559999999999997 -5.243571428571428 -5.8095 -6.769285714285714l-30.68892857142857 -17.657142857142855c-2.630785714285714 -1.5128571428571427 -5.697857142857143 -2.0892857142857144 -8.6985 -1.6307142857142856l-24.667499999999997 3.762857142857143c-1.4719285714285713 0.18214285714285713 -2.9661428571428567 -0.06642857142857142 -4.299428571428572 -0.7199999999999999 -1.3495714285714284 -0.6621428571428571 -2.4737142857142858 -1.7057142857142857 -3.231 -3.004285714285714l-0.014142857142857141 -0.02357142857142857 -8.371071428571428 -14.6505 0.0008571428571428571 -0.00042857142857142855 -0.08357142857142856 -0.14228571428571427c-0.7817142857142856 -1.3298571428571426 -1.1419285714285712 -2.865428571428571 -1.0330714285714286 -4.404 0.10907142857142856 -1.5387857142857142 0.6818571428571428 -3.008142857142857 1.643142857142857 -4.214571428571428l0.00042857142857142855 0.00021428571428571427 0.06042857142857142 -0.07714285714285714 15.34457142857143 -19.54842857142857c1.8514285714285714 -2.3588571428571425 2.857928571428571 -5.270785714285714 2.857928571428571 -8.269285714285715V132.34392857142856c0 -3.0591428571428567 -1.0474285714285714 -6.026142857142857 -2.967857142857143 -8.407499999999999l-15.734142857142857 -19.51028571428571c-0.9501428571428571 -1.2019285714285715 -1.5167142857142855 -2.6627142857142854 -1.6249285714285713 -4.191642857142857 -0.10885714285714286 -1.5385714285714285 0.25135714285714283 -3.074142857142857 1.0330714285714286 -4.403785714285714l0.0008571428571428571 0.00042857142857142855 0.08185714285714285 -0.14335714285714285 8.385214285714286 -14.673857142857143c0.7572857142857143 -1.2977142857142856 1.8814285714285715 -2.343 3.231 -3.0044999999999997 1.3332857142857142 -0.6531428571428571 2.8275 -0.9027857142857142 4.299428571428572 -0.7193571428571429l24.667499999999997 3.762857142857143c2.9740714285714285 0.4536428571428571 6.014142857142857 -0.10714285714285714 8.630357142857143 -1.592142857142857l31.109357142857142 -17.656714285714287c2.6856428571428568 -1.5242142857142855 4.762071428571429 -3.9299999999999997 5.877642857142856 -6.809571428571428l9.038571428571428 -23.33185714285714 0.006428571428571428 -0.016714285714285713c0.5530714285714285 -1.4333571428571428 1.5261428571428572 -2.666142857142857 2.791714285714286 -3.537214285714285 1.2617142857142856 -0.8680714285714285 2.755285714285714 -1.336285714285714 4.286357142857143 -1.3437857142857141ZM101.78485714285713 150c0 9.53592857142857 2.8277142857142854 18.85757142857143 8.125714285714285 26.786357142857142 5.297785714285714 7.928999999999999 12.827785714285714 14.108571428571427 21.637714285714285 17.75785714285714 8.810142857142857 3.649285714285714 18.50442857142857 4.604142857142857 27.857142857142858 2.7437142857142853 9.3525 -1.860428571428571 17.94342857142857 -6.452357142857142 24.686357142857144 -13.195285714285713 6.742928571428571 -6.742928571428571 11.334857142857143 -15.333857142857141 13.195285714285713 -24.686357142857144 1.8602142857142856 -9.352714285714285 0.9055714285714285 -19.046999999999997 -2.7437142857142853 -27.857142857142858 -3.649285714285714 -8.809928571428571 -9.829071428571428 -16.339928571428572 -17.75785714285714 -21.637714285714285 -7.928785714285714 -5.297999999999999 -17.250428571428568 -8.125714285714285 -26.786357142857142 -8.125714285714285 -12.787285714285714 0 -25.050642857142854 5.079857142857143 -34.092642857142856 14.121642857142856 -9.041785714285714 9.042 -14.121642857142856 21.30557142857143 -14.121642857142856 34.092642857142856Z" clip-rule="evenodd" stroke-width="1"></path></g></svg>