<svg xmlns="http://www.w3.org/2000/svg" fill="none" viewBox="0 0 300 300" id="Terminal-Window-Duotone--Streamline-Phosphor" height="16" width="16"><desc>Terminal Window Duotone Streamline Icon: https://streamlinehq.com</desc><g id="terminal-window-duotone"><path id="Vector" fill="#c4c4c4" d="M285.69234374999996 48.2307421875V251.7692578125C285.69234374999996 254.7685546875 284.50078125 257.6450390625 282.3805078125 259.7651953125S277.383984375 263.0769140625 274.3845703125 263.0769140625H25.6154296875C22.616484375 263.0769140625 19.740234375 261.88535156250003 17.619609375 259.7651953125C15.4991015625 257.6450390625 14.307656249999999 254.7685546875 14.307656249999999 251.7692578125V48.2307421875C14.307656249999999 45.231796875 15.4991015625 42.355546875 17.619609375 40.234921875C19.740234375 38.11453125 22.616484375 36.9230859375 25.6154296875 36.9230859375H274.3845703125C277.383984375 36.9230859375 280.2603515625 38.11453125 282.3805078125 40.234921875C284.50078125 42.355546875 285.69234374999996 45.231796875 285.69234374999996 48.2307421875Z" stroke-width="1"></path><path id="Vector_2" fill="#000" d="M150 150C150.00140625 151.69617187499998 149.6211328125 153.3711328125 148.8861328125 154.9004296875C148.15265624999998 156.42984374999997 147.0840234375 157.773984375 145.75957031250002 158.8341796875L89.22117187500001 204.064921875C88.061015625 204.993515625 86.72953125000001 205.68328125 85.302421875 206.097421875C83.87554687500001 206.51015625000002 82.38117187499999 206.63882812499997 80.9044921875 206.4748828125C79.4279296875 206.3109375 77.998125 205.8571875 76.69675781250001 205.14058593750002C75.3952734375 204.4238671875 74.2477734375 203.45847656249998 73.319765625 202.2980859375C72.391640625 201.137578125 71.701171875 199.80609375 71.28761718749999 198.379921875C70.8741796875 196.95234375 70.7457421875 195.4583203125 70.909921875 193.9812890625C71.0738671875 192.504140625 71.5271484375 191.07515625000002 72.24375 189.7734375C72.96046875 188.4716015625 73.926328125 187.3252734375 75.0866015625 186.3966796875L120.5858203125 150L75.08648437500001 113.6033203125C73.926328125 112.6747265625 72.96035156250001 111.5283984375 72.24375 110.226328125C71.5271484375 108.92496093749999 71.0738671875 107.4950390625 70.909921875 106.01859375000001C70.7457421875 104.54191406250001 70.8741796875 103.0475390625 71.28761718749999 101.620546875C71.701171875 100.19355468750001 72.391640625 98.86207031250001 73.31964843749999 97.7019140625C74.2477734375 96.5417578125 75.3952734375 95.57578125 76.69675781250001 94.8591796875C77.998125 94.14257812499999 79.4279296875 93.689296875 80.9044921875 93.525234375C82.38117187499999 93.361171875 83.87554687500001 93.48949218749999 85.302421875 93.90292968749999C86.72953125000001 94.316484375 88.061015625 95.006953125 89.22117187500001 95.93507812499999L145.75957031250002 141.1658203125C147.0840234375 142.2258984375 148.1525390625 143.57015625 148.8861328125 145.0995703125C149.6211328125 146.6288671875 150.00140625 148.303828125 150 150ZM217.84617187499998 183.9230859375H161.30765625C158.308359375 183.9230859375 155.431875 185.1146484375 153.31171874999998 187.2348046875S150 192.2314453125 150 195.2307421875S151.19156249999997 201.1065234375 153.31171874999998 203.2266796875S158.308359375 206.53851562499997 161.30765625 206.53851562499997H217.84617187499998C220.84546875 206.53851562499997 223.721953125 205.346953125 225.842109375 203.2266796875S229.153828125 198.23015625 229.153828125 195.2307421875S227.96226562500001 189.35496093749998 225.842109375 187.2348046875S220.84546875 183.9230859375 217.84617187499998 183.9230859375ZM297 48.2307421875V251.7692578125C297 257.7665625 294.616875 263.519296875 290.37656250000003 267.76113281249997C286.13472656249996 272.0014453125 280.381875 274.3845703125 274.3845703125 274.3845703125H25.6154296875C19.617304687500003 274.3845703125 13.86515625 272.0014453125 9.623906250000001 267.76113281249997C5.38265625 263.519296875 3 257.7665625 3 251.7692578125V48.2307421875C3 42.232734375 5.38265625 36.48046875 9.623906250000001 32.2393359375C13.86515625 27.9980859375 19.617304687500003 25.6154296875 25.6154296875 25.6154296875H274.3845703125C280.381875 25.6154296875 286.13472656249996 27.9980859375 290.37656250000003 32.2393359375C294.616875 36.48046875 297 42.232734375 297 48.2307421875ZM274.3845703125 251.7692578125V48.2307421875H25.6154296875V251.7692578125H274.3845703125Z" stroke-width="1"></path></g></svg>