<svg xmlns="http://www.w3.org/2000/svg" viewBox="-0.5 -0.5 300 300" id="User-Group--Streamline-Font-Awesome" height="300" width="300"><desc>User Group Streamline Icon: https://streamlinehq.com</desc><!--! Font Awesome Free 6.5.2 by @fontawesome - https://fontawesome.com License - https://fontawesome.com/license/free (Icons: CC BY 4.0, Fonts: SIL OFL 1.1, Code: MIT License) Copyright 2024 Fonticons, Inc.--><path d="M46.943 90.896c0 -45.1134003125 48.83665109375 -73.30924046874999 87.90599999999999 -50.7525403125 18.13215421875 10.468597343749998 29.302 29.815345625 29.302 50.7525403125 0 45.1134003125 -48.83665109375 73.30924046874999 -87.90599999999999 50.7525403125 -18.13215421875 -10.468597343749998 -29.302 -29.815345625 -29.302 -50.7525403125ZM2.99 253.11004062499998c0 -45.097609375 36.53593125 -81.633540625 81.633540625 -81.633540625h41.84691875c45.097609375 0 81.633540625 36.53593125 81.633540625 81.633540625 0 7.508637499999999 -6.089321875 13.597959375 -13.597959375 13.597959375H16.587959375c-7.508637499999999 0 -13.597959375 -6.089321875 -13.597959375 -13.597959375Zm278.964196875 13.597959375H218.81754375c2.47235625 -4.303731249999999 3.9374562500000003 -9.294228124999998 3.9374562500000003 -14.651v-3.66275c0 -27.791115624999996 -12.407565625 -52.7436 -31.957493749999998 -69.50068125 1.098825 -0.045784375 2.1518656249999997 -0.09156875 3.250690625 -0.09156875h28.111606249999998c40.793878125 0 73.85019687500001 33.056318749999996 73.85019687500001 73.85019687500001 0 7.783343749999999 -6.31824375 14.055803124999999 -14.055803124999999 14.055803124999999ZM200.77849999999998 149.5c-14.19315625 0 -27.01278125 -5.76883125 -36.307009375 -15.063059374999998 9.019521875 -12.17864375 14.330509374999998 -27.241703125 14.330509374999998 -43.540940625 0 -12.2702125 -3.0217687499999997 -23.853659375 -8.378540625 -34.017790624999996 8.51589375 -6.226674999999999 19.000515625 -9.935209375 30.355040625 -9.935209375 28.340528125 0 51.2785 22.937971875 51.2785 51.2785S229.119028125 149.5 200.77849999999998 149.5Z" stroke-width="1"></path></svg>